<?xml version="1.0"?>
<svg xmlns="http://www.w3.org/2000/svg" xmlns:xlink="http://www.w3.org/1999/xlink" xmlns:svgjs="http://svgjs.com/svgjs" version="1.1" width="512" height="512" x="0" y="0" viewBox="0 0 746.278 746.277" style="enable-background:new 0 0 512 512" xml:space="preserve" class=""><g>
<g xmlns="http://www.w3.org/2000/svg">
	<path d="M567.52,142.808c-18.1-2.46-27.659,12.74-28.846,29.688l-13.495,134.416c-0.252,6.244-5.518,11.114-11.769,10.862   c-6.244-0.245-11.106-5.51-10.861-11.768l8.186-240.043c0.598-16.984-12.675-31.234-29.657-31.838   c-16.984-0.604-31.234,12.675-31.847,29.651l-7.999,238.13c0,5.036-4.085,9.114-9.114,9.114c-5.034,0-9.112-4.079-9.112-9.114   l-0.008-271.147C422.998,13.776,409.222,0,392.231,0s-30.767,13.775-30.767,30.759l-0.224,266.091   c0,5.719-4.633,10.322-10.357,10.351c-8.366,0.043-10.014-7.826-10.014-7.826c-0.201-0.816-10.258-236.442-10.258-236.442   c-0.885-16.969-15.363-30.004-32.325-29.112c-16.971,0.877-30.012,15.365-29.119,32.327l15.919,336.895   c1.61,10.121-5.294,19.623-15.415,21.234c-10.129,1.611-19.631-5.279-21.242-15.408l-29.356-119.524   c-4.036-16.516-20.688-26.615-37.19-22.587c-16.509,4.042-26.615,20.695-22.58,37.197l48.714,199.186   c0.899,3.652,70.445,127.939,95.802,133.902v69.174c0,22.127,17.935,40.061,40.054,40.061h136.235   c22.126,0,40.061-17.934,40.061-40.061v-75.789c35.88-45.924,49.54-132.113,50.116-206.328l17.407-248.525   C588.87,158.612,584.122,145.066,567.52,142.808z" fill="#f5d0a2" data-original="#000000" style="" class=""/>
</g>
<g xmlns="http://www.w3.org/2000/svg">
</g>
<g xmlns="http://www.w3.org/2000/svg">
</g>
<g xmlns="http://www.w3.org/2000/svg">
</g>
<g xmlns="http://www.w3.org/2000/svg">
</g>
<g xmlns="http://www.w3.org/2000/svg">
</g>
<g xmlns="http://www.w3.org/2000/svg">
</g>
<g xmlns="http://www.w3.org/2000/svg">
</g>
<g xmlns="http://www.w3.org/2000/svg">
</g>
<g xmlns="http://www.w3.org/2000/svg">
</g>
<g xmlns="http://www.w3.org/2000/svg">
</g>
<g xmlns="http://www.w3.org/2000/svg">
</g>
<g xmlns="http://www.w3.org/2000/svg">
</g>
<g xmlns="http://www.w3.org/2000/svg">
</g>
<g xmlns="http://www.w3.org/2000/svg">
</g>
<g xmlns="http://www.w3.org/2000/svg">
</g>
</g></svg>
